<svg xmlns="http://www.w3.org/2000/svg" viewBox="0 0 72 43.8"><defs><style>.cls-1{fill:#fff;}</style></defs><g id="Layer_2" data-name="Layer 2"><g id="Layer_1-2" data-name="Layer 1"><path class="cls-1" d="M15.54,14.35H5.42a4,4,0,0,1-3.85-2.89L.84,9v0L.17,6.67A4,4,0,0,1,4,1.53h7.77a4,4,0,1,1,0,8h-9L3.21,11a2.32,2.32,0,0,0,2.21,1.66H15.54A2.32,2.32,0,0,0,17.75,11L19.9,3.66A4,4,0,0,1,22.39,1l2.68-1a.86.86,0,0,1,.58,1.61L23,2.62a2.33,2.33,0,0,0-1.43,1.52l-2.15,7.32A4,4,0,0,1,15.54,14.35ZM2.29,7.85h9.5a2.32,2.32,0,0,0,2.29-2,2.31,2.31,0,0,0-2.29-2.61H4a2.29,2.29,0,0,0-2.21,3Z"/><path class="cls-1" d="M6.07,16.42a1.25,1.25,0,1,1-1.24-1.25A1.24,1.24,0,0,1,6.07,16.42Z"/><path class="cls-1" d="M16.49,16.42a1.25,1.25,0,1,1-1.24-1.25A1.25,1.25,0,0,1,16.49,16.42Z"/><path class="cls-1" d="M29.64,4a4.2,4.2,0,0,1,3.77,2V4.14h1.7V14.27h-1.7V12.38a4.23,4.23,0,0,1-3.79,2c-2.7,0-4.79-2.12-4.79-5.26S26.92,4,29.64,4ZM30,5.43a3.42,3.42,0,0,0-3.42,3.74,3.45,3.45,0,1,0,6.86,0A3.47,3.47,0,0,0,30,5.43Z"/><path class="cls-1" d="M41.73,14.43c-2.37,0-4-1.29-4.14-3.14h1.73c.1,1,1,1.72,2.39,1.72s2.07-.67,2.07-1.5c0-2.25-6-.94-6-4.71C37.79,5.25,39.25,4,41.51,4s3.71,1.2,3.82,3.18H43.65a2,2,0,0,0-2.2-1.76c-1.24,0-2,.6-2,1.41,0,2.4,5.88,1.09,6,4.71C45.42,13.18,44,14.43,41.73,14.43Z"/><path class="cls-1" d="M55,4.14H56.7L50.6,19H48.86l2-4.88-4.09-10h1.87l3.18,8.2Z"/><path class="cls-1" d="M15.29,27.39c0,4.93-3.23,7.92-8.46,7.92h-5V19.39h5C12.06,19.39,15.29,22.45,15.29,27.39ZM6.83,33.6c4.16,0,6.33-2.33,6.33-6.21S11,21.08,6.83,21.08H4V33.6Z"/><path class="cls-1" d="M29.36,35.31H27.28V33.46a4.59,4.59,0,0,1-4,2c-2.88,0-5.14-1.79-5.14-5.37V22.79H20.2v7.06c0,2.54,1.39,3.84,3.49,3.84s3.59-1.32,3.59-4V22.79h2.08Z"/><path class="cls-1" d="M33.11,18.41h2.08v9.94L40,22.79h2.9L37,29l5.91,6.28H40.1l-4.91-5.53v5.53H33.11Z"/><path class="cls-1" d="M50.27,22.59a5.2,5.2,0,0,1,4.66,2.49V22.79H57V35.31h-2.1V33a5.23,5.23,0,0,1-4.68,2.54c-3.34,0-5.92-2.63-5.92-6.51S46.91,22.59,50.27,22.59Zm.41,1.8c-2.28,0-4.23,1.67-4.23,4.62s1.95,4.68,4.23,4.68S54.93,32,54.93,29A4.29,4.29,0,0,0,50.68,24.39Z"/><path class="cls-1" d="M69.94,28.23c0-2.56-1.39-3.86-3.49-3.86s-3.59,1.32-3.59,4v6.92H60.78V22.79h2.08v1.79a4.61,4.61,0,0,1,4-2c2.9,0,5.12,1.79,5.12,5.37v7.38H69.94Z"/><path class="cls-1" d="M35.76,42.07a1,1,0,0,1,.22.63.92.92,0,0,1-.16.53,1,1,0,0,1-.45.38,1.59,1.59,0,0,1-.68.14H33.12V39.83h1.5a1.67,1.67,0,0,1,.69.13,1,1,0,0,1,.43.37.9.9,0,0,1,.15.51.87.87,0,0,1-.18.56,1.17,1.17,0,0,1-.49.34A.83.83,0,0,1,35.76,42.07Zm-2-.59h.8a.72.72,0,0,0,.49-.15.48.48,0,0,0,.18-.41.52.52,0,0,0-.18-.42.72.72,0,0,0-.49-.15h-.8Zm1.39,1.59a.56.56,0,0,0,.18-.44.58.58,0,0,0-.19-.46.82.82,0,0,0-.53-.17h-.85v1.23h.87A.83.83,0,0,0,35.15,43.07Z"/><path class="cls-1" d="M39.51,42.44H37.13a.87.87,0,0,0,.89.82.75.75,0,0,0,.73-.43h.69a1.36,1.36,0,0,1-.51.7,1.49,1.49,0,0,1-.91.27,1.61,1.61,0,0,1-.8-.2,1.44,1.44,0,0,1-.56-.56,1.81,1.81,0,0,1-.2-.85,1.74,1.74,0,0,1,.2-.84,1.35,1.35,0,0,1,.55-.56,1.62,1.62,0,0,1,.81-.2,1.55,1.55,0,0,1,.78.19,1.4,1.4,0,0,1,.54.54,1.72,1.72,0,0,1,.19.8A3,3,0,0,1,39.51,42.44Zm-.65-.52a.73.73,0,0,0-.26-.57.86.86,0,0,0-.61-.22.84.84,0,0,0-.57.21.9.9,0,0,0-.29.58Z"/><path class="cls-1" d="M40.14,41.35a1.39,1.39,0,0,1,.54-.56,1.57,1.57,0,0,1,.79-.2,1.51,1.51,0,0,1,.93.27,1.27,1.27,0,0,1,.5.76h-.69a.82.82,0,0,0-.27-.36.79.79,0,0,0-.47-.13.78.78,0,0,0-.63.28,1.45,1.45,0,0,0,0,1.57.78.78,0,0,0,.63.28.71.71,0,0,0,.74-.49h.69a1.37,1.37,0,0,1-.5.75,1.49,1.49,0,0,1-.93.28,1.57,1.57,0,0,1-.79-.2,1.39,1.39,0,0,1-.54-.56,1.8,1.8,0,0,1-.19-.85A1.74,1.74,0,0,1,40.14,41.35Z"/><path class="cls-1" d="M45.79,40.74a1,1,0,0,1,.44.45,1.49,1.49,0,0,1,.16.73v1.83h-.63V42a.9.9,0,0,0-.21-.64.74.74,0,0,0-.57-.22.75.75,0,0,0-.58.22.9.9,0,0,0-.21.64v1.74h-.64V39.57h.64V41a1.08,1.08,0,0,1,.42-.3,1.38,1.38,0,0,1,.55-.11A1.3,1.3,0,0,1,45.79,40.74Z"/><path class="cls-1" d="M49.44,40.74a1.08,1.08,0,0,1,.45.45,1.49,1.49,0,0,1,.17.73v1.83h-.64V42a.9.9,0,0,0-.21-.64.85.85,0,0,0-1.14,0,.9.9,0,0,0-.21.64v1.74h-.65V40.64h.65V41a1,1,0,0,1,.4-.3,1.31,1.31,0,0,1,.52-.11A1.43,1.43,0,0,1,49.44,40.74Z"/><path class="cls-1" d="M50.86,41.35a1.36,1.36,0,0,1,.53-.56,1.38,1.38,0,0,1,1.82.3v-.45h.65v3.11h-.65v-.46a1.26,1.26,0,0,1-.45.36,1.34,1.34,0,0,1-.64.15A1.36,1.36,0,0,1,50.86,43a1.8,1.8,0,0,1-.2-.84A1.73,1.73,0,0,1,50.86,41.35Zm2.21.28a1,1,0,0,0-.34-.36,1,1,0,0,0-.47-.12.91.91,0,0,0-.81.48,1.18,1.18,0,0,0-.13.55,1.29,1.29,0,0,0,.13.57,1,1,0,0,0,.35.37,1,1,0,0,0,.93,0,.87.87,0,0,0,.34-.37,1.11,1.11,0,0,0,.14-.56A1.13,1.13,0,0,0,53.07,41.63Z"/><path class="cls-1" d="M58.54,43H56.89l-.28.8h-.67l1.4-3.93h.75l1.41,3.93h-.68Zm-.18-.53-.64-1.82-.65,1.82Z"/><path class="cls-1" d="M60.58,43.67a1.12,1.12,0,0,1-.46-.36.79.79,0,0,1-.18-.51h.66a.47.47,0,0,0,.19.33.69.69,0,0,0,.43.13.81.81,0,0,0,.42-.1.32.32,0,0,0,.15-.27.26.26,0,0,0-.16-.26,3,3,0,0,0-.53-.19,3.44,3.44,0,0,1-.57-.19,1,1,0,0,1-.38-.27.72.72,0,0,1-.16-.49.83.83,0,0,1,.14-.46,1.07,1.07,0,0,1,.42-.32,1.61,1.61,0,0,1,.63-.12,1.3,1.3,0,0,1,.86.27,1,1,0,0,1,.35.73h-.65a.42.42,0,0,0-.17-.33.59.59,0,0,0-.41-.13.63.63,0,0,0-.39.1.3.3,0,0,0,0,.46.54.54,0,0,0,.22.13,2.93,2.93,0,0,0,.38.12l.56.19a1,1,0,0,1,.37.27.73.73,0,0,1,.17.48.81.81,0,0,1-.15.48,1.07,1.07,0,0,1-.42.32,1.46,1.46,0,0,1-.62.12A1.53,1.53,0,0,1,60.58,43.67Z"/><path class="cls-1" d="M63.1,41.35a1.42,1.42,0,0,1,1.27-.76,1.41,1.41,0,0,1,.64.14,1.33,1.33,0,0,1,.44.36v-.45h.65v3.11h-.65v-.46a1.31,1.31,0,0,1-.44.36,1.38,1.38,0,0,1-.65.15,1.4,1.4,0,0,1-.73-.2A1.49,1.49,0,0,1,63.1,43a1.79,1.79,0,0,1-.19-.84A1.72,1.72,0,0,1,63.1,41.35Zm2.22.28a1,1,0,0,0-.35-.36.93.93,0,0,0-.46-.12.9.9,0,0,0-.46.12.87.87,0,0,0-.35.36,1.07,1.07,0,0,0-.13.55,1.17,1.17,0,0,0,.13.57,1,1,0,0,0,.35.37.94.94,0,0,0,.92,0,.9.9,0,0,0,.35-.37,1.1,1.1,0,0,0,.13-.56A1.13,1.13,0,0,0,65.32,41.63Z"/><path class="cls-1" d="M69.18,40.74a1.08,1.08,0,0,1,.45.45,1.49,1.49,0,0,1,.16.73v1.83h-.64V42a.89.89,0,0,0-.2-.64.74.74,0,0,0-.57-.22.75.75,0,0,0-.58.22.9.9,0,0,0-.21.64v1.74H67V40.64h.64V41a1.08,1.08,0,0,1,.4-.3,1.36,1.36,0,0,1,.53-.11A1.45,1.45,0,0,1,69.18,40.74Z"/><path class="cls-1" d="M70.8,43.67a.4.4,0,0,1-.12-.29.37.37,0,0,1,.12-.29.41.41,0,0,1,.3-.12.39.39,0,0,1,.4.41.44.44,0,0,1-.11.29.4.4,0,0,1-.29.12A.41.41,0,0,1,70.8,43.67Zm.62-3.84-.08,2.73h-.53l-.07-2.73Z"/></g></g></svg>