<svg xmlns="http://www.w3.org/2000/svg" viewBox="0 0 72 43.53"><defs><style>.cls-1{fill:#1a73ba;}.cls-2{fill:#15253b;}</style></defs><g id="Layer_2" data-name="Layer 2"><g id="Layer_1-2" data-name="Layer 1"><path class="cls-1" d="M15.54,14.35H5.42a4,4,0,0,1-3.85-2.89L.84,9v0L.17,6.67A4,4,0,0,1,4,1.53h7.77a4,4,0,1,1,0,8h-9L3.21,11a2.32,2.32,0,0,0,2.21,1.66H15.54A2.31,2.31,0,0,0,17.75,11L19.9,3.66A4,4,0,0,1,22.39,1l2.68-1a.86.86,0,0,1,.58,1.61L23,2.62a2.33,2.33,0,0,0-1.43,1.52l-2.15,7.32A4,4,0,0,1,15.54,14.35ZM2.29,7.85h9.5a2.32,2.32,0,0,0,2.29-2,2.31,2.31,0,0,0-2.29-2.61H4a2.29,2.29,0,0,0-2.21,3Z"/><path class="cls-2" d="M6.07,16.42a1.25,1.25,0,1,1-1.24-1.25A1.24,1.24,0,0,1,6.07,16.42Z"/><path class="cls-2" d="M16.49,16.42a1.25,1.25,0,1,1-1.24-1.25A1.25,1.25,0,0,1,16.49,16.42Z"/><path class="cls-1" d="M29.64,4a4.2,4.2,0,0,1,3.77,2V4.14h1.7V14.27h-1.7V12.38a4.23,4.23,0,0,1-3.79,2c-2.7,0-4.79-2.12-4.79-5.26S26.92,4,29.64,4ZM30,5.43a3.42,3.42,0,0,0-3.42,3.74,3.45,3.45,0,1,0,6.86,0A3.47,3.47,0,0,0,30,5.43Z"/><path class="cls-1" d="M41.73,14.43c-2.37,0-4-1.29-4.14-3.14h1.73c.1,1,1,1.72,2.39,1.72s2.07-.67,2.07-1.5c0-2.25-6-.94-6-4.71C37.79,5.25,39.25,4,41.51,4s3.71,1.2,3.82,3.18H43.65a2,2,0,0,0-2.2-1.76c-1.24,0-2,.6-2,1.41,0,2.4,5.88,1.09,6,4.71C45.42,13.18,44,14.43,41.73,14.43Z"/><path class="cls-1" d="M55,4.14H56.7L50.6,19H48.86l2-4.88-4.09-10h1.87l3.18,8.2Z"/><path class="cls-2" d="M15.29,27.38c0,4.94-3.23,7.93-8.46,7.93h-5V19.39h5C12.06,19.39,15.29,22.45,15.29,27.38ZM6.83,33.6c4.16,0,6.33-2.33,6.33-6.22s-2.17-6.3-6.33-6.3H4V33.6Z"/><path class="cls-2" d="M29.36,35.31H27.28V33.46a4.61,4.61,0,0,1-4,2c-2.88,0-5.14-1.79-5.14-5.37V22.79H20.2v7.06c0,2.54,1.39,3.84,3.49,3.84s3.59-1.32,3.59-4V22.79h2.08Z"/><path class="cls-2" d="M33.11,18.4h2.08v9.94L40,22.79h2.9L37,29l5.91,6.28H40.1l-4.91-5.53v5.53H33.11Z"/><path class="cls-2" d="M50.27,22.59a5.18,5.18,0,0,1,4.66,2.49V22.79H57V35.31h-2.1V33a5.23,5.23,0,0,1-4.68,2.54c-3.34,0-5.92-2.63-5.92-6.51S46.91,22.59,50.27,22.59Zm.41,1.8c-2.28,0-4.23,1.67-4.23,4.62s1.95,4.68,4.23,4.68S54.93,32,54.93,29A4.29,4.29,0,0,0,50.68,24.39Z"/><path class="cls-2" d="M69.94,28.23c0-2.56-1.39-3.86-3.49-3.86s-3.59,1.32-3.59,4v6.92H60.78V22.79h2.08v1.78a4.63,4.63,0,0,1,4-2c2.9,0,5.12,1.79,5.12,5.37v7.38H69.94Z"/><path class="cls-2" d="M36,41.81a1,1,0,0,1,.22.62A.93.93,0,0,1,36,43a1.1,1.1,0,0,1-.44.38,1.62,1.62,0,0,1-.68.13H33.35v-3.9h1.48a1.6,1.6,0,0,1,.69.14,1,1,0,0,1,.43.36.9.9,0,0,1,.15.51.87.87,0,0,1-.18.56,1,1,0,0,1-.49.33A.91.91,0,0,1,36,41.81Zm-2-.59h.79a.79.79,0,0,0,.49-.14.5.5,0,0,0,.18-.41.52.52,0,0,0-.18-.42.74.74,0,0,0-.49-.15H34Zm1.37,1.58a.51.51,0,0,0,.19-.43.58.58,0,0,0-.2-.46.79.79,0,0,0-.52-.17H34V43h.86A.73.73,0,0,0,35.36,42.8Z"/><path class="cls-2" d="M39.69,42.18H37.33a.87.87,0,0,0,.88.82.75.75,0,0,0,.73-.44h.69a1.36,1.36,0,0,1-.5.7,1.52,1.52,0,0,1-.92.27,1.5,1.5,0,0,1-.79-.2,1.35,1.35,0,0,1-.55-.56,1.89,1.89,0,0,1,0-1.67,1.29,1.29,0,0,1,.55-.56,1.61,1.61,0,0,1,.8-.2,1.55,1.55,0,0,1,.78.19,1.4,1.4,0,0,1,.54.54,1.68,1.68,0,0,1,.19.79A1.58,1.58,0,0,1,39.69,42.18Zm-.64-.52a.73.73,0,0,0-.25-.57.93.93,0,0,0-.62-.21.79.79,0,0,0-.56.21.87.87,0,0,0-.28.57Z"/><path class="cls-2" d="M40.33,41.1a1.25,1.25,0,0,1,.53-.56,1.57,1.57,0,0,1,.79-.2,1.55,1.55,0,0,1,.93.27,1.27,1.27,0,0,1,.49.76h-.69a.62.62,0,0,0-.27-.36.76.76,0,0,0-.46-.13.78.78,0,0,0-.63.28,1.42,1.42,0,0,0,0,1.55.79.79,0,0,0,.63.29.71.71,0,0,0,.73-.49h.69a1.39,1.39,0,0,1-.5.75,1.54,1.54,0,0,1-.92.27,1.48,1.48,0,0,1-.79-.2,1.3,1.3,0,0,1-.53-.56,1.84,1.84,0,0,1,0-1.67Z"/><path class="cls-2" d="M45.94,40.49a1,1,0,0,1,.44.45,1.47,1.47,0,0,1,.16.72v1.82h-.63V41.75a.89.89,0,0,0-.21-.63.85.85,0,0,0-1.14,0,.89.89,0,0,0-.21.63v1.73h-.64V39.33h.64v1.42a1.08,1.08,0,0,1,.42-.3,1.33,1.33,0,0,1,.54-.11A1.28,1.28,0,0,1,45.94,40.49Z"/><path class="cls-2" d="M49.57,40.49a1.08,1.08,0,0,1,.45.45,1.47,1.47,0,0,1,.16.72v1.82h-.63V41.75a.89.89,0,0,0-.21-.63.72.72,0,0,0-.56-.22.74.74,0,0,0-.57.22.89.89,0,0,0-.21.63v1.73h-.64V40.39H48v.35a1,1,0,0,1,.4-.29,1.27,1.27,0,0,1,.52-.11A1.38,1.38,0,0,1,49.57,40.49Z"/><path class="cls-2" d="M51,41.1a1.36,1.36,0,0,1,.53-.56,1.48,1.48,0,0,1,1.37-.06,1.44,1.44,0,0,1,.44.36v-.45H54v3.09h-.64V43a1.28,1.28,0,0,1-.45.37,1.31,1.31,0,0,1-.64.14,1.34,1.34,0,0,1-.73-.2,1.51,1.51,0,0,1-.52-.57,1.8,1.8,0,0,1-.2-.84A1.69,1.69,0,0,1,51,41.1Zm2.2.28a.85.85,0,0,0-.34-.36.93.93,0,0,0-.46-.12.9.9,0,0,0-.46.12,1,1,0,0,0-.35.35,1.25,1.25,0,0,0,0,1.11.9.9,0,0,0,.35.37.87.87,0,0,0,.46.13.91.91,0,0,0,.8-.49,1.11,1.11,0,0,0,.14-.56A1.1,1.1,0,0,0,53.18,41.38Z"/><path class="cls-2" d="M58.61,42.69H57l-.28.79H56l1.4-3.9h.74l1.4,3.9h-.68Zm-.18-.53-.63-1.81-.64,1.81Z"/><path class="cls-2" d="M60.64,43.4a1.16,1.16,0,0,1-.45-.36.79.79,0,0,1-.18-.51h.66a.42.42,0,0,0,.19.33.65.65,0,0,0,.43.14.67.67,0,0,0,.41-.11.32.32,0,0,0,.15-.27.26.26,0,0,0-.16-.25,3,3,0,0,0-.53-.19A4.14,4.14,0,0,1,60.6,42a1,1,0,0,1-.38-.28.71.71,0,0,1-.16-.49.82.82,0,0,1,.14-.45,1,1,0,0,1,.42-.32,1.54,1.54,0,0,1,.63-.12,1.29,1.29,0,0,1,.85.27.94.94,0,0,1,.34.72H61.8a.47.47,0,0,0-.17-.33.63.63,0,0,0-.41-.12.69.69,0,0,0-.38.09.31.31,0,0,0-.14.26.25.25,0,0,0,.09.2.55.55,0,0,0,.22.14l.38.12a3.94,3.94,0,0,1,.55.18,1,1,0,0,1,.38.27.73.73,0,0,1,.16.48.86.86,0,0,1-.14.47,1,1,0,0,1-.42.33,1.67,1.67,0,0,1-.62.11A1.56,1.56,0,0,1,60.64,43.4Z"/><path class="cls-2" d="M63.15,41.1a1.42,1.42,0,0,1,1.27-.76,1.39,1.39,0,0,1,.63.14,1.33,1.33,0,0,1,.44.36v-.45h.64v3.09h-.64V43a1.28,1.28,0,0,1-1.08.51,1.32,1.32,0,0,1-.73-.2,1.53,1.53,0,0,1-.53-.57,1.79,1.79,0,0,1-.19-.84A1.68,1.68,0,0,1,63.15,41.1Zm2.21.28A.93.93,0,0,0,65,41a.9.9,0,0,0-.46-.12.93.93,0,0,0-.46.12.88.88,0,0,0-.34.35,1.09,1.09,0,0,0-.13.55,1.1,1.1,0,0,0,.13.56.82.82,0,0,0,.34.37.87.87,0,0,0,.46.13.82.82,0,0,0,.46-.13.93.93,0,0,0,.35-.36,1.1,1.1,0,0,0,.13-.56A1.09,1.09,0,0,0,65.36,41.38Z"/><path class="cls-2" d="M69.19,40.49a1.08,1.08,0,0,1,.45.45,1.47,1.47,0,0,1,.17.72v1.82h-.64V41.75a.89.89,0,0,0-.21-.63.7.7,0,0,0-.56-.22.74.74,0,0,0-.57.22.89.89,0,0,0-.21.63v1.73H67V40.39h.64v.35a1.09,1.09,0,0,1,.4-.29,1.27,1.27,0,0,1,.52-.11A1.38,1.38,0,0,1,69.19,40.49Z"/><path class="cls-2" d="M70.81,43.4a.37.37,0,0,1-.12-.29.41.41,0,1,1,.82,0,.37.37,0,0,1-.12.29.41.41,0,0,1-.58,0Zm.61-3.82-.07,2.72h-.53l-.08-2.72Z"/></g></g></svg>