<svg width="32" height="22" viewBox="0 0 32 22" fill="none" xmlns="http://www.w3.org/2000/svg">
<path d="M19.0227 17.6021H6.63139C5.568 17.604 4.53289 17.2597 3.68244 16.6213C2.83199 15.9829 2.21242 15.0851 1.91733 14.0635L1.02349 11.0514L0.203122 8.19843C-0.0140711 7.46796 -0.0578073 6.69688 0.0753926 5.94653C0.208593 5.19618 0.515053 4.48727 0.970397 3.87618C1.42574 3.26509 2.0174 2.76869 2.69832 2.42646C3.37924 2.08424 4.13062 1.90563 4.8927 1.90485H14.4065C15.0497 1.90485 15.6866 2.03153 16.2808 2.27767C16.875 2.5238 17.415 2.88456 17.8698 3.33936C18.3246 3.79416 18.6853 4.33408 18.9315 4.9283C19.1776 5.52252 19.3043 6.1594 19.3043 6.80258C19.3043 7.44576 19.1776 8.08264 18.9315 8.67686C18.6853 9.27108 18.3246 9.811 17.8698 10.2658C17.415 10.7206 16.875 11.0814 16.2808 11.3275C15.6866 11.5736 15.0497 11.7003 14.4065 11.7003H3.38665L3.9254 13.5002C4.09875 14.0845 4.4554 14.5975 4.94267 14.9635C5.42994 15.3295 6.02199 15.5291 6.63139 15.5328H19.0227C19.6325 15.531 20.2255 15.3322 20.7132 14.9659C21.2008 14.5996 21.557 14.0855 21.7287 13.5002L24.3612 4.51289C24.5752 3.76737 24.9632 3.08334 25.4932 2.51709C26.0233 1.95085 26.6802 1.51859 27.41 1.2559L30.6915 0.0314661C30.9447 -0.0318469 31.2123 0.00109081 31.4425 0.123894C31.6728 0.246697 31.8492 0.450617 31.9377 0.69612C32.0261 0.941624 32.0203 1.21122 31.9212 1.45265C31.8222 1.69407 31.637 1.89013 31.4017 2.0028L28.1569 3.23948C27.7405 3.39223 27.3654 3.63998 27.0614 3.96305C26.7575 4.28613 26.5331 4.67563 26.406 5.10062L23.7735 14.0635C23.4767 15.0912 22.8516 15.9934 21.9937 16.6324C21.1358 17.2714 20.0923 17.612 19.0227 17.6021V17.6021ZM2.79892 9.64326H14.431C15.1149 9.64096 15.775 9.39202 16.2901 8.94216C16.8052 8.49231 17.1407 7.87173 17.235 7.1944C17.2872 6.79539 17.2538 6.38983 17.1368 6.0048C17.0198 5.61977 16.822 5.26413 16.5566 4.96165C16.2912 4.65916 15.9643 4.41679 15.5978 4.25072C15.2312 4.08465 14.8334 3.9987 14.431 3.99863H4.8927C4.44656 3.99221 4.00534 4.09236 3.60569 4.29074C3.20603 4.48912 2.85949 4.78001 2.59486 5.13925C2.33023 5.49848 2.15514 5.91567 2.08415 6.35617C2.01316 6.79667 2.04832 7.24775 2.1867 7.67193L2.79892 9.64326Z" fill="white"/>
<path d="M7.42729 20.137C7.42728 20.4403 7.3372 20.7367 7.16848 20.9886C6.99975 21.2406 6.75999 21.4367 6.4796 21.5522C6.19922 21.6677 5.89085 21.6973 5.59363 21.6372C5.2964 21.5772 5.02371 21.4302 4.81016 21.2149C4.5966 20.9996 4.45181 20.7257 4.39414 20.4281C4.33648 20.1304 4.36854 19.8222 4.48626 19.5428C4.60398 19.2633 4.80206 19.0252 5.05536 18.8585C5.30867 18.6918 5.60577 18.6041 5.909 18.6065C6.10942 18.6065 6.30786 18.6462 6.49287 18.7232C6.67788 18.8003 6.8458 18.9132 6.98695 19.0555C7.1281 19.1978 7.23968 19.3666 7.31525 19.5522C7.39083 19.7379 7.42891 19.9366 7.42729 20.137V20.137Z" fill="white"/>
<path d="M20.1858 20.137C20.1858 20.4403 20.0957 20.7367 19.927 20.9886C19.7583 21.2406 19.5185 21.4367 19.2381 21.5522C18.9578 21.6677 18.6494 21.6973 18.3522 21.6372C18.0549 21.5772 17.7823 21.4302 17.5687 21.2149C17.3552 20.9996 17.2104 20.7257 17.1527 20.4281C17.095 20.1304 17.1271 19.8222 17.2448 19.5428C17.3625 19.2633 17.5606 19.0252 17.8139 18.8585C18.0672 18.6918 18.3643 18.6041 18.6675 18.6065C19.0713 18.6097 19.4575 18.7724 19.7419 19.0591C20.0263 19.3458 20.1859 19.7332 20.1858 20.137V20.137Z" fill="white"/>
</svg>
