<svg width="53" height="32" viewBox="0 0 53 32" fill="none" xmlns="http://www.w3.org/2000/svg">
<path d="M11.4138 10.5615H3.97892C3.34087 10.5626 2.71979 10.356 2.20951 9.973C1.69923 9.58996 1.32748 9.05125 1.15042 8.43826L0.614108 6.63096L0.121876 4.91917C-0.00844285 4.48087 -0.0346851 4.01821 0.0452365 3.56799C0.125158 3.11777 0.309038 2.69242 0.582251 2.32576C0.855463 1.9591 1.21047 1.66125 1.61903 1.45591C2.02759 1.25057 2.47843 1.1434 2.93568 1.14293H8.64411C9.03003 1.14293 9.41216 1.21895 9.7687 1.36663C10.1252 1.51431 10.4492 1.73078 10.7221 2.00366C10.995 2.27654 11.2114 2.6005 11.3591 2.95704C11.5068 3.31358 11.5828 3.69572 11.5828 4.08164C11.5828 4.46755 11.5068 4.84969 11.3591 5.20623C11.2114 5.56277 10.995 5.88673 10.7221 6.15961C10.4492 6.43249 10.1252 6.64896 9.7687 6.79664C9.41216 6.94433 9.03003 7.02034 8.64411 7.02034H2.03203L2.35529 8.10031C2.45931 8.45086 2.6733 8.75867 2.96567 8.97827C3.25803 9.19788 3.61327 9.31764 3.97892 9.31987H11.4138C11.7798 9.31881 12.1356 9.1995 12.4282 8.97972C12.7208 8.75994 12.9345 8.45147 13.0375 8.10031L14.617 2.70779C14.7454 2.26047 14.9782 1.85004 15.2963 1.51029C15.6143 1.17054 16.0085 0.911175 16.4464 0.753555L18.4153 0.0188801C18.5672 -0.0191086 18.7278 0.000654497 18.8659 0.0743379C19.0041 0.148021 19.11 0.270376 19.163 0.417681C19.2161 0.564986 19.2126 0.726748 19.1531 0.871607C19.0937 1.01647 18.9826 1.1341 18.8414 1.20171L16.8945 1.94373C16.6446 2.03538 16.4196 2.18403 16.2372 2.37788C16.0548 2.57173 15.9202 2.80544 15.8439 3.06044L14.2644 8.43826C14.0863 9.0549 13.7112 9.59628 13.1965 9.97968C12.6818 10.3631 12.0556 10.5674 11.4138 10.5615V10.5615ZM1.67939 5.78608H8.6588C9.06913 5.7847 9.46519 5.63533 9.77425 5.36541C10.0833 5.09549 10.2846 4.72314 10.3412 4.31673C10.3726 4.07732 10.3525 3.83398 10.2823 3.60296C10.2121 3.37193 10.0934 3.15855 9.93417 2.97705C9.77492 2.79556 9.57878 2.65013 9.35885 2.55048C9.13892 2.45084 8.90026 2.39927 8.6588 2.39923H2.93568C2.668 2.39538 2.40326 2.45547 2.16346 2.5745C1.92366 2.69353 1.71573 2.86807 1.55695 3.08361C1.39817 3.29916 1.29311 3.54948 1.25052 3.81378C1.20792 4.07809 1.22902 4.34874 1.31205 4.60325L1.67939 5.78608Z" fill="#1A73BA"/>
<path d="M4.45656 12.0824C4.45656 12.2644 4.40251 12.4422 4.30127 12.5934C4.20003 12.7446 4.05617 12.8623 3.88793 12.9316C3.7197 13.0008 3.53468 13.0186 3.35634 12.9826C3.178 12.9465 3.01438 12.8583 2.88625 12.7292C2.75811 12.6 2.67123 12.4357 2.63663 12.2571C2.60203 12.0784 2.62127 11.8936 2.6919 11.7259C2.76254 11.5582 2.88139 11.4153 3.03337 11.3153C3.18536 11.2153 3.36363 11.1626 3.54556 11.1641C3.66582 11.1641 3.78488 11.1879 3.89589 11.2341C4.0069 11.2804 4.10766 11.3481 4.19235 11.4335C4.27704 11.5189 4.34399 11.6202 4.38934 11.7316C4.43468 11.8429 4.45753 11.9622 4.45656 12.0824V12.0824Z" fill="#15253B"/>
<path d="M12.1118 12.0824C12.1118 12.2644 12.0578 12.4422 11.9565 12.5934C11.8553 12.7446 11.7114 12.8623 11.5432 12.9316C11.375 13.0008 11.19 13.0186 11.0116 12.9826C10.8333 12.9465 10.6697 12.8583 10.5415 12.7292C10.4134 12.6 10.3265 12.4357 10.2919 12.2571C10.2573 12.0784 10.2765 11.8936 10.3472 11.7259C10.4178 11.5582 10.5367 11.4153 10.6886 11.3153C10.8406 11.2153 11.0189 11.1626 11.2008 11.1641C11.4431 11.166 11.6748 11.2636 11.8455 11.4357C12.0161 11.6077 12.1118 11.8401 12.1118 12.0824V12.0824Z" fill="#15253B"/>
<path d="M21.7728 2.95774C22.3236 2.93284 22.8711 3.056 23.3582 3.31441C23.8453 3.57282 24.2543 3.95704 24.5425 4.42709V3.06059H25.7915V10.5029H24.5425V9.11432C24.2513 9.585 23.8397 9.96937 23.3502 10.2277C22.8606 10.486 22.311 10.6089 21.7581 10.5837C19.7745 10.5837 18.239 9.02616 18.239 6.71928C18.239 4.4124 19.7745 2.95774 21.7728 2.95774ZM22.0373 4.00832C21.6866 4.00678 21.3394 4.07868 21.0182 4.21939C20.6969 4.3601 20.4087 4.5665 20.172 4.82532C19.9354 5.08413 19.7555 5.38963 19.644 5.72215C19.5325 6.05466 19.4919 6.40684 19.5247 6.75601C19.4864 7.10979 19.5231 7.46766 19.6323 7.80634C19.7415 8.14501 19.9208 8.4569 20.1585 8.7217C20.3962 8.9865 20.687 9.19828 21.012 9.34326C21.3369 9.48824 21.6888 9.56316 22.0446 9.56316C22.4005 9.56316 22.7523 9.48824 23.0773 9.34326C23.4023 9.19828 23.6931 8.9865 23.9308 8.7217C24.1685 8.4569 24.3478 8.14501 24.457 7.80634C24.5662 7.46766 24.6028 7.10979 24.5646 6.75601C24.5918 6.40678 24.5468 6.05567 24.4324 5.7246C24.3179 5.39354 24.1364 5.08961 23.8993 4.83179C23.6622 4.57397 23.3744 4.36778 23.0541 4.22611C22.7337 4.08443 22.3876 4.01029 22.0373 4.00832V4.00832Z" fill="#1A73BA"/>
<path d="M30.6551 10.6202C28.9139 10.6202 27.7164 9.67245 27.6135 8.3133H28.8845C28.958 9.04798 29.6192 9.57695 30.6404 9.57695C31.6616 9.57695 32.1612 9.08471 32.1612 8.47493C32.1612 6.82191 27.7531 7.78434 27.7531 5.01461C27.7605 3.87586 28.8331 2.95752 30.4935 2.95752C32.1538 2.95752 33.2191 3.83913 33.2999 5.29379H32.0657C32.0213 4.90862 31.8266 4.55658 31.5238 4.31437C31.2211 4.07217 30.8349 3.95945 30.4494 4.00076C29.5384 4.00076 28.98 4.44156 28.98 5.03665C28.98 6.79987 33.2999 5.83745 33.3881 8.49697C33.366 9.70184 32.3228 10.6202 30.6551 10.6202Z" fill="#1A73BA"/>
<path d="M40.404 3.0601H41.653L37.1715 13.9774H35.8931L37.3625 10.3922L34.3577 3.04541H35.7315L38.0678 9.06975L40.404 3.0601Z" fill="#1A73BA"/>
<path d="M11.2303 20.1342C11.2303 23.7635 8.85728 25.9602 5.01493 25.9602H1.34155V14.2642H5.01493C8.85728 14.2642 11.2303 16.5123 11.2303 20.1342ZM5.01493 24.7039C8.07118 24.7039 9.66543 22.9921 9.66543 20.1342C9.66543 17.2763 8.07118 15.5058 5.01493 15.5058H2.9358V24.7039H5.01493Z" fill="#15253B"/>
<path d="M21.567 25.9603H20.0389V24.6012C19.714 25.0754 19.2738 25.459 18.7597 25.7161C18.2456 25.9731 17.6745 26.0951 17.1002 26.0705C14.9843 26.0705 13.324 24.7555 13.324 22.1253V16.7622H14.8374V21.949C14.8374 23.8151 15.8586 24.7702 17.4014 24.7702C18.9442 24.7702 20.0389 23.8004 20.0389 21.8315V16.7622H21.567V25.9603Z" fill="#15253B"/>
<path d="M24.322 13.5371H25.8501V20.8398L29.3839 16.7623H31.5145L27.1799 21.3247L31.5218 25.9384H29.4574L25.8501 21.8757V25.9384H24.322V13.5371Z" fill="#15253B"/>
<path d="M36.9292 16.6151C37.6115 16.5847 38.2894 16.7386 38.8918 17.0604C39.4942 17.3823 39.9988 17.8604 40.3528 18.4444V16.762H41.8736V25.9602H40.3308V24.2631C39.9773 24.8535 39.4717 25.3382 38.8669 25.6664C38.2621 25.9947 37.5802 26.1545 36.8925 26.1291C34.4387 26.1291 32.5432 24.1969 32.5432 21.3464C32.5432 18.4959 34.4607 16.6151 36.9292 16.6151ZM37.2304 17.9375C35.5554 17.9375 34.1228 19.1644 34.1228 21.3317C34.1228 23.499 35.5554 24.77 37.2304 24.77C38.9055 24.77 40.3528 23.5284 40.3528 21.3244C40.385 20.8936 40.3284 20.4608 40.1863 20.0528C40.0443 19.6449 39.8199 19.2705 39.5271 18.9529C39.2343 18.6353 38.8794 18.3813 38.4843 18.2066C38.0892 18.0319 37.6624 17.9403 37.2304 17.9375V17.9375Z" fill="#15253B"/>
<path d="M51.3803 20.7587C51.3803 18.8779 50.3591 17.9228 48.8162 17.9228C47.2734 17.9228 46.1788 18.8926 46.1788 20.8615V25.9455H44.6506V16.7621H46.1788V18.0698C46.5046 17.5966 46.9451 17.2137 47.4589 16.9568C47.9728 16.6998 48.5434 16.5772 49.1175 16.6004C51.248 16.6004 52.879 17.9155 52.879 20.5456V25.9675H51.3803V20.7587Z" fill="#15253B"/>
<path d="M26.4454 30.7357C26.5491 30.865 26.6061 31.0255 26.6071 31.1912C26.6019 31.345 26.5449 31.4926 26.4454 31.61C26.3647 31.7303 26.253 31.8268 26.1222 31.8891C25.9645 31.9566 25.7941 31.9892 25.6226 31.9846H24.4985V29.1194H25.5859C25.7604 29.1156 25.9335 29.1508 26.0928 29.2223C26.2212 29.2785 26.3308 29.3703 26.4087 29.4868C26.4823 29.5977 26.5207 29.7283 26.5189 29.8614C26.5239 30.0098 26.4772 30.1552 26.3867 30.2729C26.2938 30.3881 26.1683 30.4726 26.0267 30.5153C26.1885 30.5353 26.3374 30.6136 26.4454 30.7357V30.7357ZM24.9761 30.3022H25.5565C25.6845 30.3087 25.8111 30.2725 25.9165 30.1994C25.9604 30.1629 25.9952 30.1167 26.0182 30.0644C26.0411 30.0121 26.0516 29.9552 26.0487 29.8982C26.0516 29.8401 26.0412 29.7821 26.0183 29.7286C25.9954 29.6751 25.9605 29.6276 25.9165 29.5896C25.8134 29.5112 25.6858 29.4721 25.5565 29.4794H24.9761V30.3022ZM25.9826 31.463C26.0295 31.4254 26.0666 31.3771 26.0909 31.3221C26.1152 31.2671 26.126 31.2071 26.1222 31.1471C26.1245 31.0834 26.1126 31.0199 26.0871 30.9614C26.0617 30.9029 26.0235 30.8509 25.9752 30.8092C25.8668 30.7234 25.7314 30.6791 25.5932 30.6843H24.9761V31.61H25.6079C25.7446 31.6096 25.876 31.557 25.9752 31.463H25.9826Z" fill="#15253B"/>
<path d="M29.1563 31.0074H27.4225C27.4319 31.1717 27.5044 31.3261 27.6248 31.4383C27.7453 31.5505 27.9044 31.612 28.069 31.6098C28.1806 31.6167 28.2917 31.5895 28.3875 31.5318C28.4833 31.474 28.5593 31.3885 28.6053 31.2866H29.1122C29.0486 31.4932 28.9197 31.6737 28.7449 31.8008C28.5469 31.9381 28.3098 32.0077 28.069 31.9992C27.8657 32.0047 27.6648 31.9539 27.4886 31.8523C27.3161 31.7582 27.1755 31.615 27.0845 31.4408C26.9905 31.25 26.9417 31.0401 26.9417 30.8274C26.9417 30.6147 26.9905 30.4048 27.0845 30.2139C27.1732 30.0381 27.3144 29.8943 27.4886 29.8025C27.6684 29.7033 27.871 29.6527 28.0763 29.6556C28.2763 29.651 28.4739 29.6991 28.6494 29.7952C28.8158 29.8881 28.9532 30.0254 29.0461 30.1919C29.1394 30.371 29.1873 30.5703 29.1857 30.7723C29.1839 30.8514 29.1741 30.9302 29.1563 31.0074V31.0074ZM28.6861 30.6253C28.6882 30.5463 28.6729 30.4678 28.6411 30.3954C28.6094 30.323 28.562 30.2585 28.5024 30.2066C28.3743 30.1017 28.2124 30.0468 28.0469 30.0523C27.8949 30.0478 27.7471 30.1032 27.6355 30.2066C27.5166 30.3153 27.4432 30.4648 27.4298 30.6253H28.6861Z" fill="#15253B"/>
<path d="M29.6265 30.2138C29.7097 30.0391 29.8459 29.8951 30.0158 29.8024C30.193 29.7032 30.3932 29.6525 30.5962 29.6555C30.8393 29.6469 31.0788 29.7165 31.2795 29.8539C31.4639 29.9895 31.592 30.1882 31.6395 30.4122H31.1325C31.1019 30.3023 31.0311 30.2079 30.9342 30.1477C30.8347 30.0804 30.7162 30.0469 30.5962 30.0522C30.5085 30.0487 30.4211 30.0655 30.3408 30.1012C30.2606 30.1368 30.1896 30.1905 30.1334 30.2579C30.023 30.4273 29.9643 30.6251 29.9643 30.8273C29.9643 31.0295 30.023 31.2273 30.1334 31.3967C30.1892 31.465 30.26 31.5198 30.3402 31.5567C30.4204 31.5936 30.508 31.6118 30.5962 31.6097C30.7131 31.6187 30.8295 31.588 30.9268 31.5227C31.0241 31.4574 31.0966 31.3613 31.1325 31.2497H31.6395C31.5816 31.4691 31.4524 31.663 31.2721 31.8007C31.0737 31.9371 30.8369 32.0066 30.5962 31.9991C30.3928 32.0054 30.1917 31.9545 30.0158 31.8522C29.8474 31.7576 29.7117 31.6141 29.6265 31.4408C29.5297 31.2507 29.4792 31.0405 29.4792 30.8273C29.4792 30.6141 29.5297 30.4039 29.6265 30.2138V30.2138Z" fill="#15253B"/>
<path d="M33.7479 29.7658C33.8885 29.8383 34.0018 29.9543 34.0712 30.0964C34.1547 30.2599 34.1952 30.4419 34.1888 30.6254V31.9625H33.7259V30.6915C33.7361 30.5231 33.6808 30.3572 33.5716 30.2286C33.4568 30.1249 33.3076 30.0674 33.1529 30.0674C32.9981 30.0674 32.8489 30.1249 32.7341 30.2286C32.6249 30.3572 32.5696 30.5231 32.5798 30.6915V31.9625H32.1096V28.9136H32.5798V29.9568C32.6633 29.8595 32.7692 29.7839 32.8884 29.7364C33.0135 29.6821 33.1487 29.6545 33.2851 29.6556C33.4463 29.652 33.6057 29.69 33.7479 29.7658V29.7658Z" fill="#15253B"/>
<path d="M36.4149 29.7661C36.5558 29.8406 36.671 29.9558 36.7455 30.0967C36.829 30.2602 36.8695 30.4422 36.863 30.6257V31.9628H36.4002V30.6918C36.4104 30.5234 36.3551 30.3576 36.2459 30.229C36.1931 30.1739 36.1289 30.131 36.0579 30.1031C35.9869 30.0752 35.9107 30.063 35.8345 30.0673C35.7572 30.0629 35.6799 30.075 35.6077 30.1029C35.5354 30.1308 35.47 30.1738 35.4157 30.229C35.3065 30.3576 35.2512 30.5234 35.2615 30.6918V31.9628H34.7913V29.6926H35.2615V29.9498C35.34 29.8553 35.4411 29.782 35.5553 29.7367C35.6755 29.6831 35.8057 29.6556 35.9374 29.6559C36.1031 29.653 36.2671 29.6909 36.4149 29.7661V29.7661Z" fill="#15253B"/>
<path d="M37.4654 30.2144C37.5527 30.0425 37.688 29.8996 37.8547 29.8029C38.0065 29.7149 38.1773 29.665 38.3526 29.6573C38.5278 29.6496 38.7024 29.6845 38.8612 29.7589C38.9855 29.8247 39.0954 29.9146 39.1845 30.0233V29.6927H39.6694V31.9629H39.1992V31.6102C39.1113 31.7251 38.9982 31.8181 38.8686 31.8821C38.7231 31.9556 38.5613 31.991 38.3984 31.9849C38.2092 31.9885 38.023 31.9375 37.8621 31.838C37.7006 31.7338 37.569 31.5895 37.48 31.4192C37.3817 31.2285 37.3313 31.0167 37.3331 30.8021C37.3283 30.5983 37.3737 30.3964 37.4654 30.2144ZM39.0816 30.4201C39.0265 30.3091 38.9395 30.217 38.8319 30.1556C38.7287 30.0974 38.6123 30.067 38.4939 30.0674C38.3754 30.066 38.2587 30.0964 38.1559 30.1556C38.05 30.2184 37.9616 30.3068 37.8988 30.4127C37.836 30.5395 37.8033 30.679 37.8033 30.8205C37.8033 30.9619 37.836 31.1015 37.8988 31.2282C37.9566 31.3417 38.0459 31.4361 38.1559 31.5C38.2575 31.5628 38.3745 31.5959 38.4939 31.5955C38.6153 31.5946 38.7342 31.5605 38.8377 31.4971C38.9413 31.4337 39.0256 31.3433 39.0816 31.2356C39.1516 31.1099 39.1871 30.9679 39.1845 30.8241C39.1817 30.6814 39.1411 30.542 39.0669 30.4201H39.0816Z" fill="#15253B"/>
<path d="M43.0562 31.382H41.8733L41.6676 31.9624H41.1387L42.1672 29.0972H42.7109L43.7394 31.9624H43.2398L43.0562 31.382ZM42.9239 30.9926L42.4611 29.6629L41.9909 30.9926H42.9239Z" fill="#15253B"/>
<path d="M44.5476 31.9039C44.4169 31.8449 44.3032 31.754 44.217 31.6394C44.1302 31.5339 44.0834 31.4013 44.0847 31.2647H44.5696C44.5722 31.3133 44.5861 31.3605 44.6104 31.4027C44.6346 31.4448 44.6685 31.4806 44.7092 31.5071C44.7988 31.5781 44.9109 31.6146 45.0251 31.61C45.1316 31.6164 45.2374 31.5881 45.3263 31.5292C45.36 31.5081 45.3877 31.4789 45.407 31.4442C45.4262 31.4095 45.4364 31.3705 45.4365 31.3308C45.438 31.2919 45.4276 31.2534 45.4066 31.2206C45.3855 31.1877 45.355 31.1621 45.319 31.1472C45.1939 31.0885 45.0635 31.0418 44.9296 31.0076C44.7895 30.9733 44.652 30.9291 44.5182 30.8753C44.4101 30.83 44.3143 30.7595 44.239 30.6696C44.1561 30.5686 44.1142 30.4401 44.1215 30.3096C44.1227 30.1917 44.1584 30.0768 44.2243 29.979C44.3043 29.8744 44.4108 29.7932 44.5329 29.7439C44.6793 29.6824 44.837 29.6523 44.9957 29.6558C45.2209 29.6455 45.4423 29.7159 45.6202 29.8541C45.698 29.9186 45.7607 29.9995 45.8039 30.0909C45.8471 30.1823 45.8696 30.282 45.87 30.3831H45.3998C45.3965 30.3363 45.3838 30.2907 45.3623 30.249C45.3408 30.2073 45.3111 30.1705 45.2749 30.1406C45.1878 30.0771 45.0813 30.0459 44.9737 30.0525C44.8762 30.0472 44.7793 30.0701 44.6945 30.1186C44.6629 30.1394 44.6369 30.1677 44.6189 30.2011C44.6009 30.2344 44.5916 30.2717 44.5917 30.3096C44.5908 30.3375 44.5963 30.3653 44.6078 30.3907C44.6192 30.4162 44.6363 30.4387 44.6578 30.4566C44.7026 30.5033 44.7581 30.5386 44.8194 30.5594L45.0986 30.6476C45.2363 30.6817 45.3714 30.7259 45.5027 30.7798C45.6101 30.823 45.7057 30.891 45.7818 30.9782C45.8618 31.078 45.9035 31.203 45.8994 31.3308C45.8994 31.4535 45.8636 31.5734 45.7965 31.6761C45.7176 31.7834 45.6109 31.8672 45.488 31.9186C45.3426 31.9741 45.1881 32.0016 45.0325 31.9994C44.8658 32.0032 44.7004 31.9706 44.5476 31.9039Z" fill="#15253B"/>
<path d="M46.3918 30.2142C46.481 30.0444 46.6152 29.9024 46.7798 29.8039C46.9444 29.7054 47.133 29.6542 47.3249 29.6559C47.4851 29.6534 47.6436 29.6886 47.7877 29.7587C47.9133 29.8226 48.0235 29.9128 48.111 30.0232V29.6926H48.5811V31.9628H48.111V31.6101C48.0191 31.7324 47.8989 31.8304 47.7606 31.8957C47.6224 31.961 47.4703 31.9916 47.3175 31.9848C47.1282 31.9892 46.9418 31.9382 46.7812 31.8379C46.6175 31.7342 46.4833 31.5899 46.3918 31.4191C46.2958 31.2278 46.2478 31.016 46.2522 30.802C46.2494 30.5975 46.2973 30.3956 46.3918 30.2142V30.2142ZM48.0155 30.4199C47.9558 30.3035 47.864 30.2066 47.751 30.1408C47.6483 30.0816 47.5315 30.0512 47.413 30.0526C47.2946 30.0522 47.1782 30.0826 47.0751 30.1408C46.9692 30.2012 46.8826 30.2904 46.8253 30.3979C46.7585 30.5219 46.7255 30.6612 46.7298 30.802C46.7246 30.9452 46.7575 31.0871 46.8253 31.2134C46.878 31.3279 46.9654 31.423 47.0751 31.4852C47.1766 31.548 47.2937 31.5811 47.413 31.5807C47.5327 31.5832 47.6503 31.5499 47.751 31.4852C47.8593 31.4223 47.9483 31.3308 48.0081 31.2207C48.0758 31.0945 48.1088 30.9525 48.1036 30.8093C48.1076 30.6742 48.0772 30.5402 48.0155 30.4199V30.4199Z" fill="#15253B"/>
<path d="M50.8292 29.766C50.9701 29.8405 51.0853 29.9557 51.1598 30.0966C51.2458 30.2594 51.2888 30.4415 51.2847 30.6255V31.9626H50.8145V30.6917C50.8247 30.5233 50.7694 30.3574 50.6602 30.2288C50.6079 30.173 50.5439 30.1295 50.4727 30.1015C50.4015 30.0736 50.325 30.0618 50.2488 30.0672C50.1715 30.0628 50.0941 30.0749 50.0219 30.1028C49.9497 30.1306 49.8843 30.1736 49.83 30.2288C49.7208 30.3574 49.6655 30.5233 49.6757 30.6917V31.9626H49.2202V29.6925H49.6904V29.9496C49.7708 29.8571 49.8713 29.7842 49.9843 29.7366C50.1045 29.683 50.2347 29.6555 50.3663 29.6558C50.5271 29.6553 50.6858 29.693 50.8292 29.766V29.766Z" fill="#15253B"/>
<path d="M52.0193 31.9036C51.9899 31.8767 51.9668 31.8437 51.9516 31.8069C51.9363 31.7701 51.9294 31.7304 51.9312 31.6906C51.9312 31.651 51.939 31.6118 51.9541 31.5753C51.9693 31.5388 51.9914 31.5055 52.0194 31.4776C52.0474 31.4496 52.0806 31.4274 52.1171 31.4123C52.1537 31.3971 52.1928 31.3894 52.2324 31.3894C52.272 31.3894 52.3111 31.3971 52.3477 31.4123C52.3842 31.4274 52.4174 31.4496 52.4454 31.4776C52.4734 31.5055 52.4956 31.5388 52.5107 31.5753C52.5258 31.6118 52.5336 31.651 52.5336 31.6906C52.5354 31.7304 52.5285 31.7701 52.5133 31.8069C52.498 31.8437 52.4749 31.8767 52.4455 31.9036C52.4175 31.9316 52.3843 31.9538 52.3477 31.969C52.3112 31.9841 52.272 31.9919 52.2324 31.9919C52.1928 31.9919 52.1537 31.9841 52.1171 31.969C52.0805 31.9538 52.0473 31.9316 52.0193 31.9036V31.9036ZM52.4675 29.0972L52.4161 31.0955H52.0267L51.9679 29.0972H52.4675Z" fill="#15253B"/>
</svg>
