<svg width="20" height="21" viewBox="0 0 20 21" fill="none" xmlns="http://www.w3.org/2000/svg">
<path d="M19.7529 19.293L16.0709 15.611C17.511 13.8095 18.2066 11.5249 18.0147 9.22654C17.8229 6.92817 16.7582 4.79051 15.0394 3.25267C13.3205 1.71483 11.078 0.893565 8.77256 0.957581C6.46708 1.0216 4.27363 1.96603 2.64278 3.59688C1.01193 5.22773 0.067496 7.42118 0.00347987 9.72666C-0.0605363 12.0321 0.760724 14.2746 2.29856 15.9935C3.8364 17.7123 5.97406 18.777 8.27244 18.9688C10.5708 19.1607 12.8554 18.4651 14.6569 17.025L18.3389 20.707L19.7529 19.293ZM9.04594 17C7.66147 17 6.30809 16.5895 5.15694 15.8203C4.0058 15.0512 3.10859 13.9579 2.57878 12.6788C2.04896 11.3997 1.91034 9.99227 2.18044 8.6344C2.45053 7.27654 3.11722 6.02926 4.09619 5.05029C5.07516 4.07132 6.32244 3.40464 7.6803 3.13454C9.03817 2.86444 10.4456 3.00307 11.7247 3.53288C13.0038 4.06269 14.0971 4.9599 14.8662 6.11104C15.6354 7.26219 16.0459 8.61557 16.0459 10C16.0438 11.8559 15.3056 13.6351 13.9933 14.9474C12.681 16.2597 10.9018 16.9979 9.04594 17Z" fill="currentColor"/>
</svg>
