<svg width="663" height="630" viewBox="0 0 663 630" fill="none" xmlns="http://www.w3.org/2000/svg">
<path fill-rule="evenodd" clip-rule="evenodd" d="M456.31 275.876C507.226 275.876 548.813 233.934 548.813 182.584C548.813 131.179 507.226 89.2919 456.31 89.2919C405.34 89.2919 363.807 131.179 363.807 182.584C363.807 233.934 405.34 275.876 456.31 275.876Z" fill="white" stroke="#FFC12F" stroke-width="1.469" stroke-miterlimit="10"/>
<path fill-rule="evenodd" clip-rule="evenodd" d="M471.184 208.824C496.936 208.824 517.943 187.638 517.943 161.666C517.943 135.695 496.936 114.51 471.184 114.51C445.433 114.51 424.427 135.696 424.427 161.666C424.427 187.637 445.433 208.824 471.184 208.824Z" fill="#FFC12F" stroke="#FFC12F" stroke-width="1.469" stroke-miterlimit="10"/>
<path fill-rule="evenodd" clip-rule="evenodd" d="M500.401 198.016C492.166 204.55 481.964 208.112 471.451 208.125C449.645 208.125 431.304 193.015 426.13 172.636C429.898 167.286 434.897 162.92 440.705 159.907C446.514 156.894 452.962 155.321 459.506 155.322C482.111 155.322 500.399 173.765 500.399 196.564V198.016H500.401Z" fill="white"/>
<path fill-rule="evenodd" clip-rule="evenodd" d="M215.534 121.123C224.103 121.066 232.301 117.622 238.339 111.542C244.378 105.463 247.767 97.242 247.767 88.6732C247.767 80.1044 244.378 71.8834 238.339 65.804C232.301 59.7246 224.103 56.2804 215.534 56.2228C197.833 56.2228 183.385 70.7929 183.385 88.7003C183.385 106.552 197.833 121.123 215.534 121.123Z" fill="white" stroke="#FFC12F" stroke-width="1.469" stroke-miterlimit="10"/>
<path fill-rule="evenodd" clip-rule="evenodd" d="M220.707 97.7872C223.956 97.8148 227.141 96.8764 229.856 95.0911C232.571 93.3058 234.695 90.7542 235.958 87.7599C237.22 84.7656 237.565 81.4637 236.948 78.2732C236.331 75.0827 234.78 72.1475 232.492 69.8399C230.204 67.5323 227.282 65.9564 224.097 65.3122C220.912 64.6681 217.607 64.9846 214.602 66.2217C211.597 67.4589 209.028 69.5608 207.219 72.2608C205.411 74.9607 204.445 78.1371 204.445 81.3867C204.435 85.7155 206.14 89.872 209.188 92.9459C212.236 96.0198 216.378 97.7607 220.707 97.7872Z" fill="#FFC12F" stroke="#FFC12F" stroke-width="1.469" stroke-miterlimit="10"/>
<path fill-rule="evenodd" clip-rule="evenodd" d="M230.89 94.0231C228.768 95.724 226.251 96.8616 223.571 97.3302C220.892 97.7989 218.138 97.5835 215.565 96.704C212.991 95.8246 210.681 94.3095 208.849 92.2993C207.017 90.2891 205.722 87.8489 205.085 85.2049C206.83 82.7279 209.321 80.8739 212.194 79.914C215.068 78.9541 218.173 78.9386 221.056 79.8697C223.94 80.8009 226.449 82.6299 228.219 85.0893C229.988 87.5487 230.924 90.5096 230.89 93.5391V94.0231Z" fill="white"/>
<path fill-rule="evenodd" clip-rule="evenodd" d="M1 120.852L18.6979 83.5465L68.0312 42.3666L62.6769 69.3667L1 120.852Z" fill="#FFC12F" stroke="#FFC12F" stroke-width="1.126" stroke-linejoin="bevel"/>
<path fill-rule="evenodd" clip-rule="evenodd" d="M62.6768 69.3696L68.0311 42.3695L112.705 96.8229L118.509 137.426L62.6768 69.3696Z" fill="white" stroke="#FFC12F" stroke-width="1.126" stroke-linejoin="bevel"/>
<path fill-rule="evenodd" clip-rule="evenodd" d="M1 120.852L62.6769 69.3667L118.509 137.423L56.8738 188.909L1 120.852Z" fill="#FFC12F" stroke="white" stroke-width="1.126" stroke-linejoin="bevel"/>
<path d="M139.143 100.654C140.123 99.2026 141.382 97.961 142.846 97.0009C144.311 96.0409 145.951 95.3816 147.673 95.0614C149.394 94.7412 151.162 94.7664 152.874 95.1357C154.586 95.505 156.207 96.2109 157.643 97.2124C160.54 99.2588 162.516 102.362 163.145 105.853C163.773 109.344 163.004 112.942 161.002 115.87C158.197 119.944 155.7 124.221 153.534 128.668C151.748 132.346 150.302 136.179 149.214 140.121C141.11 169.695 162.437 193.784 182.697 216.583C211.544 249.168 238.572 279.656 205.569 324.5C204.544 325.914 203.247 327.109 201.755 328.017C200.263 328.924 198.605 329.526 196.878 329.786C195.151 330.046 193.39 329.96 191.696 329.533C190.003 329.105 188.412 328.345 187.015 327.296C184.173 325.165 182.287 321.998 181.768 318.484C181.249 314.969 182.138 311.392 184.243 308.53C204.343 281.215 184.296 258.577 162.917 234.435C137.965 206.312 111.626 176.578 123.57 132.97C125.087 127.491 127.103 122.164 129.594 117.053C132.342 111.346 135.533 105.862 139.138 100.653L139.143 100.654Z" fill="white" stroke="#FFC12F" stroke-width="1.469" stroke-miterlimit="10"/>
<path fill-rule="evenodd" clip-rule="evenodd" d="M196.724 314.069C200.722 317.08 202.109 322.027 199.872 324.984C197.633 327.995 192.568 327.995 188.569 324.984C184.57 321.919 183.184 317.026 185.421 314.015C187.658 311.003 192.726 311.058 196.724 314.069H196.724Z" fill="#FFC12F"/>
<path fill-rule="evenodd" clip-rule="evenodd" d="M284.632 314.967C307.718 314.967 326.486 333.84 326.486 357.177C326.486 380.46 307.718 399.333 284.632 399.333C279.116 399.315 273.657 398.21 268.567 396.081C263.478 393.953 258.858 390.842 254.971 386.927C251.084 383.012 248.007 378.37 245.915 373.265C243.823 368.16 242.758 362.693 242.78 357.177C242.78 333.84 261.494 314.967 284.632 314.967ZM284.632 338.679C288.622 338.651 292.529 339.809 295.859 342.005C299.19 344.202 301.792 347.338 303.337 351.016C304.882 354.694 305.3 358.748 304.537 362.664C303.774 366.579 301.865 370.18 299.053 373.009C296.24 375.838 292.65 377.768 288.739 378.554C284.828 379.339 280.772 378.945 277.085 377.422C273.398 375.899 270.246 373.314 268.031 369.997C265.815 366.68 264.634 362.779 264.639 358.79C264.63 356.156 265.14 353.546 266.14 351.11C267.14 348.674 268.611 346.458 270.468 344.591C272.324 342.723 274.531 341.239 276.962 340.225C279.392 339.211 281.999 338.686 284.632 338.679Z" fill="#FFC12F" stroke="#FFC12F" stroke-width="1.469" stroke-miterlimit="10"/>
<path fill-rule="evenodd" clip-rule="evenodd" d="M284.632 332.119C307.718 332.119 326.486 351.046 326.486 374.329C326.486 397.666 307.718 416.539 284.632 416.539C261.496 416.539 242.779 397.666 242.779 374.329C242.779 351.046 261.493 332.119 284.632 332.119ZM284.632 355.833C288.627 355.799 292.543 356.952 295.881 359.147C299.22 361.342 301.831 364.48 303.383 368.161C304.936 371.843 305.36 375.902 304.601 379.825C303.842 383.748 301.936 387.357 299.122 390.194C296.309 393.031 292.716 394.969 288.8 395.761C284.884 396.553 280.821 396.164 277.126 394.642C273.432 393.121 270.272 390.537 268.049 387.217C265.826 383.897 264.639 379.992 264.639 375.996C264.618 370.672 266.713 365.557 270.462 361.776C274.211 357.995 279.308 355.857 284.632 355.833Z" fill="white" stroke="#FFC12F" stroke-width="1.469" stroke-miterlimit="10"/>
<path d="M469.125 318.493C470.727 317.787 472.453 317.407 474.203 317.375C475.953 317.342 477.692 317.658 479.32 318.303C480.947 318.949 482.429 319.911 483.681 321.134C484.933 322.358 485.93 323.818 486.613 325.429C488.02 328.682 488.087 332.36 486.799 335.662C485.512 338.964 482.973 341.625 479.735 343.066C425.3 367.048 429.458 402.429 433.403 436.304C437.935 475.127 442.307 512.444 390.645 538.253C389.079 539.034 387.373 539.497 385.627 539.614C383.88 539.731 382.128 539.5 380.472 538.935C378.815 538.37 377.287 537.481 375.977 536.321C374.667 535.161 373.6 533.752 372.838 532.176C371.28 528.992 371.039 525.322 372.166 521.961C373.293 518.6 375.699 515.818 378.862 514.217C413.677 496.796 410.371 468.676 406.96 439.368C401.894 395.868 396.563 350.432 469.126 318.492L469.125 318.493Z" fill="white" stroke="#FFC12F" stroke-width="1.469" stroke-miterlimit="10"/>
<path fill-rule="evenodd" clip-rule="evenodd" d="M384.94 537.232C386.978 537.217 388.967 536.6 390.655 535.456C392.343 534.313 393.655 532.696 394.425 530.808C395.195 528.921 395.389 526.847 394.983 524.85C394.576 522.852 393.587 521.019 392.141 519.583C390.694 518.146 388.854 517.17 386.854 516.778C384.853 516.386 382.781 516.594 380.899 517.378C379.017 518.161 377.409 519.484 376.278 521.18C375.147 522.877 374.543 524.87 374.543 526.908C374.569 529.651 375.674 532.273 377.621 534.206C379.567 536.138 382.197 537.226 384.94 537.232Z" fill="#FFC12F"/>
<path d="M343.835 15.8673C345.049 14.973 346.429 14.3288 347.895 13.9724C349.36 13.6159 350.882 13.5542 352.371 13.7909C353.861 14.0275 355.289 14.5578 356.571 15.3509C357.854 16.144 358.967 17.1842 359.844 18.4109C361.639 20.8817 362.387 23.9611 361.926 26.9802C361.464 29.9993 359.829 32.7143 357.377 34.5354C316.113 64.94 326.265 93.9097 335.954 121.654C347.067 153.446 357.762 184.004 319.173 215.424C318.003 216.376 316.656 217.086 315.21 217.513C313.763 217.94 312.247 218.076 310.747 217.913C309.248 217.749 307.796 217.29 306.476 216.561C305.156 215.832 303.993 214.849 303.056 213.667C301.147 211.282 300.254 208.241 300.57 205.203C300.886 202.165 302.386 199.373 304.744 197.431C330.744 176.234 322.675 153.209 314.293 129.207C301.852 93.5802 288.823 56.3752 343.834 15.8673H343.835Z" fill="white" stroke="#FFC12F" stroke-width="1.266" stroke-miterlimit="10"/>
<path fill-rule="evenodd" clip-rule="evenodd" d="M314.185 215.638C315.897 215.242 317.453 214.349 318.657 213.07C319.862 211.791 320.661 210.185 320.953 208.452C321.246 206.72 321.019 204.94 320.302 203.337C319.584 201.733 318.408 200.378 316.921 199.442C315.434 198.506 313.704 198.032 311.948 198.078C310.191 198.124 308.488 198.689 307.053 199.702C305.618 200.715 304.514 202.13 303.882 203.769C303.25 205.408 303.117 207.198 303.501 208.912C304.038 211.214 305.461 213.211 307.461 214.471C309.461 215.73 311.877 216.149 314.185 215.638Z" fill="#FFC12F"/>
<path fill-rule="evenodd" clip-rule="evenodd" d="M5.10938 442.325L33.42 389.361L117.02 365.648L108.329 413.074L5.10938 442.325Z" fill="white" stroke="#FFC12F" stroke-width="1.469" stroke-linejoin="bevel"/>
<path fill-rule="evenodd" clip-rule="evenodd" d="M108.328 413.074L117.019 365.648L135.573 432.216L131.201 495.235L108.328 413.074Z" fill="#FFC12F" stroke="#FFC12F" stroke-width="1.469" stroke-linejoin="bevel"/>
<path fill-rule="evenodd" clip-rule="evenodd" d="M5.10938 442.325L108.329 413.073L131.202 495.235L28.0343 524.484L5.10938 442.325Z" fill="white" stroke="#FFC12F" stroke-width="1.469" stroke-miterlimit="10"/>
<path fill-rule="evenodd" clip-rule="evenodd" d="M473.407 564.347L468.429 589.38L437.357 609.338L435.039 588.979L473.407 564.347Z" fill="white" stroke="#FFC12F" stroke-width="1.469" stroke-linejoin="bevel"/>
<path fill-rule="evenodd" clip-rule="evenodd" d="M435.04 588.979L437.357 609.338L421.598 584.556L415.6 558.388L435.04 588.979Z" fill="#FFC12F" stroke="#FFC12F" stroke-width="1.469" stroke-linejoin="bevel"/>
<path fill-rule="evenodd" clip-rule="evenodd" d="M473.407 564.347L435.04 588.979L415.6 558.389L453.946 533.764L473.407 564.347Z" fill="white" stroke="#FFC12F" stroke-width="1.469" stroke-miterlimit="10"/>
<path fill-rule="evenodd" clip-rule="evenodd" d="M534.418 314.483L559.476 264.745L643.076 241.033L637.637 285.178L534.418 314.483Z" fill="#FFC12F" stroke="#FFC12F" stroke-width="1.469" stroke-linejoin="bevel"/>
<path fill-rule="evenodd" clip-rule="evenodd" d="M637.637 285.178L643.075 241.032L661.629 307.6L660.563 367.393L637.637 285.178Z" fill="white" stroke="#FFC12F" stroke-width="1.469" stroke-linejoin="bevel"/>
<path fill-rule="evenodd" clip-rule="evenodd" d="M534.418 314.483L637.637 285.178L660.563 367.393L557.343 396.648L534.418 314.483Z" fill="white" stroke="#FFC12F" stroke-width="1.469" stroke-miterlimit="10"/>
<path fill-rule="evenodd" clip-rule="evenodd" d="M217.099 628.669C234.8 628.669 249.249 614.099 249.249 596.246C249.249 578.34 234.8 563.768 217.099 563.768C208.531 563.826 200.333 567.27 194.294 573.349C188.255 579.429 184.866 587.65 184.866 596.219C184.866 604.787 188.255 613.008 194.294 619.088C200.333 625.167 208.531 628.611 217.099 628.669Z" fill="white" stroke="#FFC12F" stroke-width="1.469" stroke-miterlimit="10"/>
<path fill-rule="evenodd" clip-rule="evenodd" d="M222.273 605.386C225.53 605.419 228.724 604.483 231.447 602.697C234.171 600.911 236.303 598.355 237.571 595.355C238.839 592.355 239.187 589.045 238.569 585.847C237.952 582.649 236.398 579.706 234.105 577.393C231.811 575.08 228.882 573.501 225.689 572.856C222.496 572.212 219.184 572.531 216.173 573.774C213.162 575.016 210.588 577.126 208.779 579.835C206.97 582.543 206.007 585.728 206.012 588.986C206.001 593.314 207.707 597.471 210.755 600.545C213.803 603.619 217.944 605.36 222.273 605.386Z" fill="#FFC12F" stroke="#FFC12F" stroke-width="1.469" stroke-miterlimit="10"/>
<path fill-rule="evenodd" clip-rule="evenodd" d="M232.402 601.569C229.561 603.856 226.026 605.108 222.379 605.117C218.755 605.105 215.239 603.889 212.382 601.66C209.525 599.431 207.49 596.316 206.597 592.804C208.334 590.313 210.824 588.445 213.701 587.473C216.578 586.501 219.691 586.476 222.583 587.403C225.475 588.329 227.995 590.158 229.771 592.62C231.548 595.083 232.49 598.05 232.457 601.087C232.457 601.249 232.403 601.41 232.403 601.571L232.402 601.569Z" fill="white"/>
<path fill-rule="evenodd" clip-rule="evenodd" d="M620.263 465.914C624.558 439.374 606.216 414.174 579.45 409.842C552.603 405.497 527.247 423.624 522.953 450.163C518.644 476.783 536.986 501.983 563.832 506.328C590.599 510.661 615.954 492.534 620.263 465.913V465.914Z" fill="white" stroke="#FFC12F" stroke-width="2.231" stroke-miterlimit="10"/>
<path fill-rule="evenodd" clip-rule="evenodd" d="M586.609 452.512C587.449 447.636 586.821 442.621 584.804 438.104C582.787 433.586 579.472 429.77 575.281 427.14C571.091 424.511 566.213 423.187 561.268 423.336C556.323 423.485 551.533 425.101 547.509 427.978C543.484 430.855 540.405 434.864 538.664 439.495C536.923 444.126 536.598 449.17 537.731 453.986C538.863 458.802 541.401 463.173 545.023 466.543C548.646 469.913 553.188 472.131 558.073 472.913C564.561 473.979 571.206 472.43 576.555 468.607C581.903 464.783 585.519 458.996 586.609 452.512Z" fill="#FFC12F" stroke="#FFC12F" stroke-width="2.231" stroke-miterlimit="10"/>
<path fill-rule="evenodd" clip-rule="evenodd" d="M583.342 436.395C586.083 441.209 587.102 446.812 586.232 452.283C585.334 457.713 582.656 462.69 578.621 466.432C574.586 470.175 569.421 472.469 563.939 472.956C560.628 469.747 558.432 465.561 557.673 461.012C556.914 456.463 557.633 451.791 559.723 447.681C561.813 443.57 565.165 440.237 569.287 438.17C573.409 436.103 578.086 435.411 582.63 436.196C582.872 436.235 583.101 436.354 583.342 436.393V436.395Z" fill="white"/>
<path fill-rule="evenodd" clip-rule="evenodd" d="M302.543 519.593C305.151 503.479 294.014 488.178 277.763 485.548C261.462 482.909 246.066 493.916 243.459 510.03C240.843 526.193 251.98 541.493 268.28 544.132C284.532 546.762 299.927 535.756 302.543 519.592V519.593Z" fill="white" stroke="#FFC12F" stroke-width="2.231" stroke-miterlimit="10"/>
<path fill-rule="evenodd" clip-rule="evenodd" d="M282.109 511.456C282.619 508.495 282.238 505.45 281.013 502.707C279.788 499.964 277.776 497.647 275.231 496.051C272.687 494.454 269.725 493.65 266.722 493.741C263.72 493.831 260.812 494.812 258.368 496.559C255.925 498.306 254.055 500.741 252.998 503.552C251.941 506.364 251.744 509.427 252.431 512.351C253.119 515.275 254.66 517.929 256.859 519.975C259.059 522.021 261.817 523.368 264.783 523.843C268.722 524.49 272.757 523.55 276.004 521.228C279.252 518.906 281.447 515.392 282.109 511.456Z" fill="#FFC12F" stroke="#FFC12F" stroke-width="2.231" stroke-miterlimit="10"/>
<path fill-rule="evenodd" clip-rule="evenodd" d="M280.127 501.67C281.791 504.593 282.409 507.995 281.881 511.317C281.336 514.613 279.71 517.636 277.26 519.908C274.81 522.18 271.674 523.573 268.346 523.869C266.335 521.92 265.002 519.379 264.541 516.617C264.08 513.855 264.516 511.018 265.785 508.522C267.054 506.026 269.09 504.003 271.593 502.748C274.096 501.493 276.935 501.073 279.694 501.549C279.841 501.573 279.98 501.645 280.127 501.669V501.67Z" fill="white"/>
<path fill-rule="evenodd" clip-rule="evenodd" d="M616.577 1C639.713 1 658.43 19.9272 658.43 43.2101C658.43 66.5464 639.716 85.4202 616.577 85.4202C593.492 85.4202 574.777 66.5464 574.777 43.2101C574.777 19.9272 593.492 1 616.577 1ZM616.577 24.7134C620.574 24.6687 624.495 25.8133 627.841 28.0018C631.187 30.1903 633.806 33.3239 635.367 37.0046C636.928 40.6852 637.36 44.7468 636.607 48.6732C635.855 52.5997 633.952 56.2139 631.141 59.0566C628.33 61.8993 624.737 63.8423 620.819 64.6386C616.901 65.435 612.835 65.0488 609.137 63.5292C605.439 62.0096 602.277 59.425 600.051 56.104C597.825 52.7829 596.637 48.8752 596.637 44.8772C596.616 39.5619 598.704 34.4552 602.441 30.6758C606.178 26.8963 611.262 24.7523 616.577 24.7134Z" fill="#FFC12F" stroke="#FFC12F" stroke-width="1.469" stroke-miterlimit="10"/>
<path fill-rule="evenodd" clip-rule="evenodd" d="M616.577 18.2066C639.713 18.2066 658.43 37.0804 658.43 60.4167C658.43 83.6996 639.716 102.627 616.577 102.627C593.492 102.627 574.777 83.6996 574.777 60.4167C574.777 37.0804 593.492 18.2066 616.577 18.2066ZM616.577 41.9193C620.566 41.8807 624.476 43.0279 627.812 45.2154C631.148 47.4029 633.759 50.5321 635.314 54.2059C636.869 57.8796 637.297 61.9325 636.545 65.8501C635.792 69.7677 633.893 73.3736 631.088 76.2102C628.283 79.0467 624.699 80.9861 620.79 81.7823C616.881 82.5785 612.824 82.1956 609.133 80.6822C605.442 79.1688 602.284 76.593 600.059 73.2818C597.834 69.9705 596.643 66.0731 596.637 62.0838C596.616 56.7685 598.703 51.6617 602.441 47.8821C606.178 44.1025 611.262 41.9584 616.577 41.9193Z" fill="white" stroke="#FFC12F" stroke-width="1.469" stroke-miterlimit="10"/>
</svg>
