<svg width="15" height="20" viewBox="0 0 15 20" fill="none" xmlns="http://www.w3.org/2000/svg">
<path d="M12.8571 5H11.4286V4.28571C11.4286 3.14907 10.977 2.05898 10.1733 1.25526C9.36959 0.451529 8.2795 0 7.14286 0C6.00622 0 4.91613 0.451529 4.1124 1.25526C3.30867 2.05898 2.85714 3.14907 2.85714 4.28571V5H1.42857C1.04969 5 0.686328 5.15051 0.418419 5.41842C0.15051 5.68633 0 6.04969 0 6.42857V18.5714C0 18.9503 0.15051 19.3137 0.418419 19.5816C0.686328 19.8495 1.04969 20 1.42857 20H12.8571C13.236 20 13.5994 19.8495 13.8673 19.5816C14.1352 19.3137 14.2857 18.9503 14.2857 18.5714V6.42857C14.2857 6.04969 14.1352 5.68633 13.8673 5.41842C13.5994 5.15051 13.236 5 12.8571 5ZM4.28571 4.28571C4.28571 3.52795 4.58673 2.80123 5.12255 2.26541C5.65837 1.72959 6.3851 1.42857 7.14286 1.42857C7.90062 1.42857 8.62734 1.72959 9.16316 2.26541C9.69898 2.80123 10 3.52795 10 4.28571V5H4.28571V4.28571ZM10.8643 11.2214L6.57857 15.5071C6.51217 15.5741 6.43317 15.6272 6.34613 15.6635C6.25908 15.6998 6.16572 15.7184 6.07143 15.7184C5.97713 15.7184 5.88377 15.6998 5.79673 15.6635C5.70969 15.6272 5.63069 15.5741 5.56429 15.5071L3.42143 13.3643C3.35483 13.2977 3.302 13.2186 3.26596 13.1316C3.22991 13.0446 3.21136 12.9513 3.21136 12.8571C3.21136 12.763 3.22991 12.6697 3.26596 12.5827C3.302 12.4957 3.35483 12.4166 3.42143 12.35C3.55593 12.2155 3.73836 12.1399 3.92857 12.1399C4.02276 12.1399 4.11602 12.1585 4.20304 12.1945C4.29005 12.2306 4.36912 12.2834 4.43571 12.35L6.07143 13.9929L9.85 10.2071C9.9845 10.0726 10.1669 9.99708 10.3571 9.99708C10.5474 9.99708 10.7298 10.0726 10.8643 10.2071C10.9988 10.3416 11.0744 10.5241 11.0744 10.7143C11.0744 10.9045 10.9988 11.0869 10.8643 11.2214Z" fill="black"/>
</svg>
