<svg xmlns="http://www.w3.org/2000/svg" viewBox="0 0 862.05 251.6"><defs><style>.cls-1{fill:#30d5c8;}.cls-2{fill:#fff;}</style></defs><g id="Layer_2" data-name="Layer 2"><g id="Layer_1-2" data-name="Layer 1"><path class="cls-1" d="M10,190.38a9.61,9.61,0,0,1-7-2.94,9.6,9.6,0,0,1-2.93-7V60.15a9.61,9.61,0,0,1,2.93-7,9.6,9.6,0,0,1,7-2.93H48.59q29,0,49.57,20.53t20.53,49.57q0,29-20.53,49.57T48.59,190.38ZM48.59,70.12H20V170.43H48.59A48.3,48.3,0,0,0,84,155.72a48.31,48.31,0,0,0,14.72-35.44A48.29,48.29,0,0,0,84,84.84,48.31,48.31,0,0,0,48.59,70.12Z"/><path class="cls-1" d="M197.4,115A29.36,29.36,0,0,0,165,121a29,29,0,0,0,0,41,29,29,0,0,0,41,.1l.2-.19a9.44,9.44,0,0,1,6.94-2.84,9.66,9.66,0,0,1,7,2.89,9.45,9.45,0,0,1,2.93,7,9.64,9.64,0,0,1-2.93,7l-.2.19a48.85,48.85,0,0,1-68.93-.1,47,47,0,0,1-14.27-34.51A48.74,48.74,0,0,1,185.57,92.8,46.86,46.86,0,0,1,220,107l-.1.1a.09.09,0,0,0,.1.1,9.44,9.44,0,0,1,2.84,6.94A9.33,9.33,0,0,1,220,121l-28,27.77a9.77,9.77,0,0,1-7,2.83,9.68,9.68,0,0,1-10-10,9.77,9.77,0,0,1,2.83-7Z"/><path class="cls-1" d="M261.05,66.8a9.61,9.61,0,0,1,2.93,7V180.41a10,10,0,0,1-20,0V73.84a10,10,0,0,1,17-7Z"/><path class="cls-1" d="M293.21,83a10,10,0,0,1,0-20,9.95,9.95,0,0,1,7,17A9.58,9.58,0,0,1,293.21,83Zm0,107.35a10,10,0,0,1-10-10V102.19a10,10,0,0,1,19.95,0v78.22a10,10,0,0,1-10,10Z"/><path class="cls-1" d="M380.52,184a8.35,8.35,0,0,1-2.25,3.42,9.26,9.26,0,0,1-6.94,2.94,9.16,9.16,0,0,1-6.84-2.94,8.39,8.39,0,0,1-2.25-3.32l-38-76.16a9.27,9.27,0,0,1-1.76-5.58,9.82,9.82,0,0,1,16.72-6.94,9.18,9.18,0,0,1,1.56,2.06h.1l30.5,61.1,30.51-61.1.09.09a10.71,10.71,0,0,1,1.67-2.15,9.74,9.74,0,0,1,13.78,0,9.5,9.5,0,0,1,2.84,6.89,9.07,9.07,0,0,1-1.86,5.67Z"/><path class="cls-1" d="M488.85,115a29.36,29.36,0,0,0-32.36,6,29,29,0,0,0,0,41,29,29,0,0,0,41,.1l.2-.19a9.44,9.44,0,0,1,6.94-2.84,9.65,9.65,0,0,1,7,2.89,9.41,9.41,0,0,1,2.93,7,9.6,9.6,0,0,1-2.93,7l-.19.19a48.8,48.8,0,0,1-83.21-34.61A48.81,48.81,0,0,1,511.44,107l-.1.1a.09.09,0,0,0,.1.1,9.43,9.43,0,0,1,2.83,6.94,9.32,9.32,0,0,1-2.83,6.84l-28,27.77a9.75,9.75,0,0,1-7,2.83,10,10,0,0,1-7.13-17Z"/><path class="cls-1" d="M584.37,92.61a10,10,0,0,1,0,19.94h-.1a28,28,0,0,0-20.53,8.51,27.28,27.28,0,0,0-8.41,18.48,14.72,14.72,0,0,1,.1,1.76V179q0,5.47-2.93,8.4a9.9,9.9,0,0,1-14.08,0c-2-1.95-2.93-4.82-2.93-8.6V141.1a47,47,0,0,1,14.27-34Q563.26,93.58,584.37,92.61Z"/><circle class="cls-2" cx="736.25" cy="125.8" r="120.2"/><path class="cls-1" d="M736.25,0a125.8,125.8,0,1,0,125.8,125.8A125.8,125.8,0,0,0,736.25,0ZM695.57,57.62a22.07,22.07,0,0,1,12.22-3.85,12.62,12.62,0,0,1,6.9,1.81c1.88,1.21,2.83,3.4,2.83,6.56s-1.74,6.22-5.21,9.17A17.13,17.13,0,0,1,701,75.72a14.67,14.67,0,0,1-7.8-2.15,7.27,7.27,0,0,1-3.51-6.68C689.69,63.27,691.65,60.19,695.57,57.62Zm121.82,97.61A57.85,57.85,0,0,1,804,169.94a26.62,26.62,0,0,1-16.4,5.54q-8.82,0-13.46-4.41a14.81,14.81,0,0,1-4.64-11.2,32.23,32.23,0,0,1,1.59-9.61q1.57-5.1,3.16-10.3a34,34,0,0,0,1.59-10q0-5-2.38-6.9a8.54,8.54,0,0,0-5.54-1.92q-6.78,0-13.91,5.54a83.4,83.4,0,0,0-13.8,13.91q-6.68,8.37-12.56,17.42t-10.18,16.29a22.6,22.6,0,0,1-8.14-1.47,14.82,14.82,0,0,1-6.56-5.09,49.25,49.25,0,0,1,2-5.41q-2.06,2.28-4.25,4.28-12.21,11.07-26.24,11.08-10,0-14.93-5.88a21.31,21.31,0,0,1-5-14.25,61.53,61.53,0,0,1,1.81-13.12,128.93,128.93,0,0,1,5.09-16.63,121.26,121.26,0,0,1,7.58-16.4,54.75,54.75,0,0,1,9.28-12.56q5-4.86,10-4.86a7.55,7.55,0,0,1,4.75,1.58,5.92,5.92,0,0,1,2,5q0,2.94-3.51,8.82T683.25,123a125.9,125.9,0,0,0-8.15,15.94,40.23,40.23,0,0,0-3.5,15.73q0,7.23,2.6,9.61c1.73,1.58,4.26,2.38,7.58,2.38q7.68,0,16.74-7.7,7.17-6.09,14.77-19.45c.94-3,1.83-6.1,2.64-9.28a65,65,0,0,0,2.26-16.06,18.32,18.32,0,0,1,4.87-3.62,14.11,14.11,0,0,1,6.9-1.81q7.9,0,7.91,6.79a47.38,47.38,0,0,1-1,8q-1,5.32-2.83,12.1a136.22,136.22,0,0,1,12.89-14.93,72.18,72.18,0,0,1,14.59-11.42,30.08,30.08,0,0,1,15.27-4.41q9.74,0,14.37,6.56a24.53,24.53,0,0,1,4.64,14.48,34.92,34.92,0,0,1-2.27,12.66q-2.26,5.9-4.41,11.09A26.61,26.61,0,0,0,787,159.87q0,3.62,1.7,5.09a5.56,5.56,0,0,0,3.73,1.47q5.43,0,11.31-5.2A66.46,66.46,0,0,0,814.9,148a155.66,155.66,0,0,0,9.39-16.17l3.84,3.17A131.44,131.44,0,0,1,817.39,155.23Z"/></g></g></svg>